<svg width="40" height="40" viewBox="0 0 40 40" fill="none" xmlns="http://www.w3.org/2000/svg">
<path d="M7.5 6.25H10V8.75H7.5V6.25Z" fill="black"/>
<path d="M5 8.75H7.5V11.25H5V8.75Z" fill="black"/>
<path d="M7.5 8.75H10V11.25H7.5V8.75Z" fill="black"/>
<path d="M10 8.75H12.5V11.25H10V8.75Z" fill="black"/>
<path d="M2.5 11.25H5V13.75H2.5V11.25Z" fill="black"/>
<path d="M2.5 13.75H5V16.25H2.5V13.75Z" fill="black"/>
<path d="M0 16.25H2.5V18.75H0V16.25Z" fill="black"/>
<path d="M0 18.75H2.5V21.25H0V18.75Z" fill="black"/>
<path d="M0 21.25H2.5V23.75H0V21.25Z" fill="black"/>
<path d="M0 23.75H2.5V26.25H0V23.75Z" fill="black"/>
<path d="M0 26.25H2.5V28.75H0V26.25Z" fill="black"/>
<path d="M2.5 26.25H5V28.75H2.5V26.25Z" fill="black"/>
<path d="M2.5 28.75H5V31.25H2.5V28.75Z" fill="black"/>
<path d="M5 31.25H7.5V33.75H5V31.25Z" fill="black"/>
<path d="M7.5 31.25H10V33.75H7.5V31.25Z" fill="black"/>
<path d="M10 31.25H12.5V33.75H10V31.25Z" fill="black"/>
<path d="M7.5 28.75H10V31.25H7.5V28.75Z" fill="black"/>
<path d="M5 28.75H7.5V31.25H5V28.75Z" fill="black"/>
<path d="M5 26.25H7.5V28.75H5V26.25Z" fill="black"/>
<path d="M7.5 23.75H10V26.25H7.5V23.75Z" fill="black"/>
<path d="M5 23.75H7.5V26.25H5V23.75Z" fill="black"/>
<path d="M2.5 23.75H5V26.25H2.5V23.75Z" fill="black"/>
<path d="M5 21.25H7.5V23.75H5V21.25Z" fill="black"/>
<path d="M5 18.75H7.5V21.25H5V18.75Z" fill="black"/>
<path d="M5 16.25H7.5V18.75H5V16.25Z" fill="black"/>
<path d="M7.5 16.25H10V18.75H7.5V16.25Z" fill="black"/>
<path d="M10 13.75H12.5V16.25H10V13.75Z" fill="black"/>
<path d="M12.5 13.75H15V16.25H12.5V13.75Z" fill="black"/>
<path d="M15 16.25H17.5V18.75H15V16.25Z" fill="black"/>
<path d="M15 23.75H17.5V26.25H15V23.75Z" fill="black"/>
<path d="M17.5 21.25H20V23.75H17.5V21.25Z" fill="black"/>
<path d="M17.5 23.75H20V26.25H17.5V23.75Z" fill="black"/>
<path d="M17.5 18.75H20V21.25H17.5V18.75Z" fill="black"/>
<path d="M17.5 16.25H20V18.75H17.5V16.25Z" fill="black"/>
<path d="M15 13.75H17.5V16.25H15V13.75Z" fill="black"/>
<path d="M15 11.25H17.5V13.75H15V11.25Z" fill="black"/>
<path d="M12.5 11.25H15V13.75H12.5V11.25Z" fill="black"/>
<path d="M10 11.25H12.5V13.75H10V11.25Z" fill="black"/>
<path d="M7.5 11.25H10V13.75H7.5V11.25Z" fill="black"/>
<path d="M5 11.25H7.5V13.75H5V11.25Z" fill="black"/>
<path d="M7.5 13.75H10V16.25H7.5V13.75Z" fill="black"/>
<path d="M5 13.75H7.5V16.25H5V13.75Z" fill="black"/>
<path d="M17.5 13.75H20V16.25H17.5V13.75Z" fill="black"/>
<path d="M17.5 11.25H20V13.75H17.5V11.25Z" fill="black"/>
<path d="M2.5 21.25H5V23.75H2.5V21.25Z" fill="black"/>
<path d="M2.5 18.75H5V21.25H2.5V18.75Z" fill="black"/>
<path d="M2.5 16.25H5V18.75H2.5V16.25Z" fill="black"/>
<path d="M10 26.25H12.5V28.75H10V26.25Z" fill="black"/>
<path d="M12.5 26.25H15V28.75H12.5V26.25Z" fill="black"/>
<path d="M15 26.25H17.5V28.75H15V26.25Z" fill="black"/>
<path d="M17.5 26.25H20V28.75H17.5V26.25Z" fill="black"/>
<path d="M10 6.25H12.5V8.75H10V6.25Z" fill="black"/>
<path d="M12.5 6.25H15V8.75H12.5V6.25Z" fill="black"/>
<path d="M12.5 8.75H15V11.25H12.5V8.75Z" fill="black"/>
<path d="M15 8.75H17.5V11.25H15V8.75Z" fill="black"/>
<path d="M17.5 8.75H20V11.25H17.5V8.75Z" fill="black"/>
<path d="M32.5 6.25H30V8.75H32.5V6.25Z" fill="black"/>
<path d="M35 8.75H32.5V11.25H35V8.75Z" fill="black"/>
<path d="M32.5 8.75H30V11.25H32.5V8.75Z" fill="black"/>
<path d="M30 8.75H27.5V11.25H30V8.75Z" fill="black"/>
<path d="M37.5 11.25H35V13.75H37.5V11.25Z" fill="black"/>
<path d="M37.5 13.75H35V16.25H37.5V13.75Z" fill="black"/>
<path d="M40 16.25H37.5V18.75H40V16.25Z" fill="black"/>
<path d="M40 18.75H37.5V21.25H40V18.75Z" fill="black"/>
<path d="M40 21.25H37.5V23.75H40V21.25Z" fill="black"/>
<path d="M40 23.75H37.5V26.25H40V23.75Z" fill="black"/>
<path d="M40 26.25H37.5V28.75H40V26.25Z" fill="black"/>
<path d="M37.5 26.25H35V28.75H37.5V26.25Z" fill="black"/>
<path d="M37.5 28.75H35V31.25H37.5V28.75Z" fill="black"/>
<path d="M35 31.25H32.5V33.75H35V31.25Z" fill="black"/>
<path d="M32.5 31.25H30V33.75H32.5V31.25Z" fill="black"/>
<path d="M30 31.25H27.5V33.75H30V31.25Z" fill="black"/>
<path d="M32.5 28.75H30V31.25H32.5V28.75Z" fill="black"/>
<path d="M35 28.75H32.5V31.25H35V28.75Z" fill="black"/>
<path d="M35 26.25H32.5V28.75H35V26.25Z" fill="black"/>
<path d="M32.5 23.75H30V26.25H32.5V23.75Z" fill="black"/>
<path d="M35 23.75H32.5V26.25H35V23.75Z" fill="black"/>
<path d="M37.5 23.75H35V26.25H37.5V23.75Z" fill="black"/>
<path d="M35 21.25H32.5V23.75H35V21.25Z" fill="black"/>
<path d="M35 18.75H32.5V21.25H35V18.75Z" fill="black"/>
<path d="M35 16.25H32.5V18.75H35V16.25Z" fill="black"/>
<path d="M32.5 16.25H30V18.75H32.5V16.25Z" fill="black"/>
<path d="M30 13.75H27.5V16.25H30V13.75Z" fill="black"/>
<path d="M27.5 13.75H25V16.25H27.5V13.75Z" fill="black"/>
<path d="M25 16.25H22.5V18.75H25V16.25Z" fill="black"/>
<path d="M25 23.75H22.5V26.25H25V23.75Z" fill="black"/>
<path d="M22.5 21.25H20V23.75H22.5V21.25Z" fill="black"/>
<path d="M22.5 23.75H20V26.25H22.5V23.75Z" fill="black"/>
<path d="M22.5 18.75H20V21.25H22.5V18.75Z" fill="black"/>
<path d="M22.5 16.25H20V18.75H22.5V16.25Z" fill="black"/>
<path d="M25 13.75H22.5V16.25H25V13.75Z" fill="black"/>
<path d="M25 11.25H22.5V13.75H25V11.25Z" fill="black"/>
<path d="M27.5 11.25H25V13.75H27.5V11.25Z" fill="black"/>
<path d="M30 11.25H27.5V13.75H30V11.25Z" fill="black"/>
<path d="M32.5 11.25H30V13.75H32.5V11.25Z" fill="black"/>
<path d="M35 11.25H32.5V13.75H35V11.25Z" fill="black"/>
<path d="M32.5 13.75H30V16.25H32.5V13.75Z" fill="black"/>
<path d="M35 13.75H32.5V16.25H35V13.75Z" fill="black"/>
<path d="M22.5 13.75H20V16.25H22.5V13.75Z" fill="black"/>
<path d="M22.5 11.25H20V13.75H22.5V11.25Z" fill="black"/>
<path d="M37.5 21.25H35V23.75H37.5V21.25Z" fill="black"/>
<path d="M37.5 18.75H35V21.25H37.5V18.75Z" fill="black"/>
<path d="M37.5 16.25H35V18.75H37.5V16.25Z" fill="black"/>
<path d="M30 26.25H27.5V28.75H30V26.25Z" fill="black"/>
<path d="M27.5 26.25H25V28.75H27.5V26.25Z" fill="black"/>
<path d="M25 26.25H22.5V28.75H25V26.25Z" fill="black"/>
<path d="M22.5 26.25H20V28.75H22.5V26.25Z" fill="black"/>
<path d="M30 6.25H27.5V8.75H30V6.25Z" fill="black"/>
<path d="M27.5 6.25H25V8.75H27.5V6.25Z" fill="black"/>
<path d="M27.5 8.75H25V11.25H27.5V8.75Z" fill="black"/>
<path d="M25 8.75H22.5V11.25H25V8.75Z" fill="black"/>
<path d="M22.5 8.75H20V11.25H22.5V8.75Z" fill="black"/>
</svg>
