<svg width="170" height="22" viewBox="0 0 170 22" fill="none" xmlns="http://www.w3.org/2000/svg">
<path fill-rule="evenodd" clip-rule="evenodd" d="M0 0H20.3664V22H14.8119V5.5H12.9604V22H7.40595V5.5H5.55446V22H0V0ZM22.2179 0H35.1783V14.6667H27.7723V16.5H35.1783V22H22.2179V0ZM37.0297 0H49.9902V5.5H42.5842V16.5H44.4356V11H49.9902V22H37.0297V0ZM51.8416 0H64.802V22H51.8416V9.16667H59.2475V5.5H51.8416V0ZM27.7723 5.5V9.16667H29.6238V5.5H27.7723ZM57.396 12.8333V16.5H59.2475V12.8333H57.396Z" fill="#0D0702"/>
<path d="M74.901 0H76.5842V1.69231H74.901V0Z" fill="#0D0702"/>
<path d="M76.5842 0H78.2673V1.69231H76.5842V0Z" fill="#0D0702"/>
<path d="M76.5842 1.69231H78.2673V3.38462H76.5842V1.69231Z" fill="#0D0702"/>
<path d="M78.2673 0H79.9505V1.69231H78.2673V0Z" fill="#0D0702"/>
<path d="M78.2673 1.69231H79.9505V3.38462H78.2673V1.69231Z" fill="#0D0702"/>
<path d="M79.9505 1.69231H81.6337V3.38462H79.9505V1.69231Z" fill="#0D0702"/>
<path d="M79.9505 10.1538H81.6337V11.8462H79.9505V10.1538Z" fill="#0D0702"/>
<path d="M76.5842 11.8462H78.2673V13.5385H76.5842V11.8462Z" fill="#0D0702"/>
<path d="M81.6337 1.69231H83.3168V3.38462H81.6337V1.69231Z" fill="#0D0702"/>
<path d="M81.6337 10.1538H83.3168V11.8462H81.6337V10.1538Z" fill="#0D0702"/>
<path d="M78.2673 11.8462H79.9505V13.5385H78.2673V11.8462Z" fill="#0D0702"/>
<path d="M83.3168 3.38462H85V5.07692H83.3168V3.38462Z" fill="#0D0702"/>
<path d="M85 3.38462H86.6832V5.07692H85V3.38462Z" fill="#0D0702"/>
<path d="M85 8.46154H86.6832V10.1538H85V8.46154Z" fill="#0D0702"/>
<path d="M83.3168 8.46154H85V10.1538H83.3168V8.46154Z" fill="#0D0702"/>
<path d="M78.2673 10.1538H79.9505V11.8462H78.2673V10.1538Z" fill="#0D0702"/>
<path d="M85 5.07692H86.6832V8.46154H85V5.07692Z" fill="#0D0702"/>
<path d="M86.6832 5.07692H88.3663V8.46154H86.6832V5.07692Z" fill="#0D0702"/>
<path d="M74.901 1.69231H76.5842V3.38462H74.901V1.69231Z" fill="#0D0702"/>
<path d="M73.2178 0H74.901V1.69231H73.2178V0Z" fill="#0D0702"/>
<path d="M73.2178 1.69231H74.901V3.38462H73.2178V1.69231Z" fill="#0D0702"/>
<path d="M73.2178 3.38462H74.901V5.07692H73.2178V3.38462Z" fill="#0D0702"/>
<path d="M73.2178 5.07692H74.901V6.76923H73.2178V5.07692Z" fill="#0D0702"/>
<path d="M73.2178 6.76923H74.901V8.46154H73.2178V6.76923Z" fill="#0D0702"/>
<path d="M73.2178 8.46154H74.901V10.1538H73.2178V8.46154Z" fill="#0D0702"/>
<path d="M73.2178 10.1538H74.901V11.8462H73.2178V10.1538Z" fill="#0D0702"/>
<path d="M73.2178 11.8462H74.901V13.5385H73.2178V11.8462Z" fill="#0D0702"/>
<path d="M73.2178 13.5385H74.901V15.2308H73.2178V13.5385Z" fill="#0D0702"/>
<path d="M73.2178 15.2308H74.901V16.9231H73.2178V15.2308Z" fill="#0D0702"/>
<path d="M73.2178 16.9231H74.901V18.6154H73.2178V16.9231Z" fill="#0D0702"/>
<path d="M73.2178 18.6154H74.901V20.3077H73.2178V18.6154Z" fill="#0D0702"/>
<path d="M73.2178 20.3077H74.901V22H73.2178V20.3077Z" fill="#0D0702"/>
<path d="M71.5347 0H73.2178V1.69231H71.5347V0Z" fill="#0D0702"/>
<path d="M71.5347 1.69231H73.2178V3.38462H71.5347V1.69231Z" fill="#0D0702"/>
<path d="M74.901 3.38462H76.5842V5.07692H74.901V3.38462Z" fill="#0D0702"/>
<path d="M74.901 5.07692H76.5842V6.76923H74.901V5.07692Z" fill="#0D0702"/>
<path d="M74.901 6.76923H76.5842V8.46154H74.901V6.76923Z" fill="#0D0702"/>
<path d="M74.901 8.46154H76.5842V10.1538H74.901V8.46154Z" fill="#0D0702"/>
<path d="M74.901 10.1538H76.5842V11.8462H74.901V10.1538Z" fill="#0D0702"/>
<path d="M74.901 11.8462H76.5842V13.5385H74.901V11.8462Z" fill="#0D0702"/>
<path d="M74.901 13.5385H76.5842V15.2308H74.901V13.5385Z" fill="#0D0702"/>
<path d="M74.901 15.2308H76.5842V16.9231H74.901V15.2308Z" fill="#0D0702"/>
<path d="M74.901 16.9231H76.5842V18.6154H74.901V16.9231Z" fill="#0D0702"/>
<path d="M74.901 18.6154H76.5842V20.3077H74.901V18.6154Z" fill="#0D0702"/>
<path d="M74.901 20.3077H76.5842V22H74.901V20.3077Z" fill="#0D0702"/>
<path d="M94.2574 0H95.9406V1.69231H94.2574V0Z" fill="#0D0702"/>
<path d="M106.04 0H107.723V1.69231H106.04V0Z" fill="#0D0702"/>
<path d="M107.723 0H109.406V1.69231H107.723V0Z" fill="#0D0702"/>
<path d="M106.04 5.07692H107.723V8.46154H106.04V5.07692Z" fill="#0D0702"/>
<path d="M92.5743 0H94.2574V1.69231H92.5743V0Z" fill="#0D0702"/>
<path d="M104.356 0H106.04V1.69231H104.356V0Z" fill="#0D0702"/>
<path d="M92.5743 1.69231H94.2574V3.38462H92.5743V1.69231Z" fill="#0D0702"/>
<path d="M94.2574 1.69231H95.9406V3.38462H94.2574V1.69231Z" fill="#0D0702"/>
<path d="M106.04 1.69231H107.723V3.38462H106.04V1.69231Z" fill="#0D0702"/>
<path d="M92.5743 3.38462H94.2574V5.07692H92.5743V3.38462Z" fill="#0D0702"/>
<path d="M92.5743 5.07692H94.2574V6.76923H92.5743V5.07692Z" fill="#0D0702"/>
<path d="M92.5743 6.76923H94.2574V8.46154H92.5743V6.76923Z" fill="#0D0702"/>
<path d="M92.5743 8.46154H94.2574V10.1538H92.5743V8.46154Z" fill="#0D0702"/>
<path d="M92.5743 10.1538H94.2574V11.8462H92.5743V10.1538Z" fill="#0D0702"/>
<path d="M92.5743 11.8462H94.2574V13.5385H92.5743V11.8462Z" fill="#0D0702"/>
<path d="M92.5743 13.5385H94.2574V15.2308H92.5743V13.5385Z" fill="#0D0702"/>
<path d="M92.5743 15.2308H94.2574V16.9231H92.5743V15.2308Z" fill="#0D0702"/>
<path d="M92.5743 16.9231H94.2574V18.6154H92.5743V16.9231Z" fill="#0D0702"/>
<path d="M104.356 16.9231H106.04V18.6154H104.356V16.9231Z" fill="#0D0702"/>
<path d="M90.8911 0H92.5743V1.69231H90.8911V0Z" fill="#0D0702"/>
<path d="M94.2574 3.38462H95.9406V5.07692H94.2574V3.38462Z" fill="#0D0702"/>
<path d="M106.04 3.38462H107.723V5.07692H106.04V3.38462Z" fill="#0D0702"/>
<path d="M94.2574 5.07692H95.9406V6.76923H94.2574V5.07692Z" fill="#0D0702"/>
<path d="M106.04 5.07692H107.723V6.76923H106.04V5.07692Z" fill="#0D0702"/>
<path d="M94.2574 6.76923H95.9406V8.46154H94.2574V6.76923Z" fill="#0D0702"/>
<path d="M106.04 6.76923H107.723V8.46154H106.04V6.76923Z" fill="#0D0702"/>
<path d="M94.2574 8.46154H95.9406V10.1538H94.2574V8.46154Z" fill="#0D0702"/>
<path d="M106.04 8.46154H107.723V10.1538H106.04V8.46154Z" fill="#0D0702"/>
<path d="M94.2574 10.1538H95.9406V11.8462H94.2574V10.1538Z" fill="#0D0702"/>
<path d="M106.04 10.1538H107.723V11.8462H106.04V10.1538Z" fill="#0D0702"/>
<path d="M94.2574 11.8462H95.9406V13.5385H94.2574V11.8462Z" fill="#0D0702"/>
<path d="M106.04 11.8462H107.723V13.5385H106.04V11.8462Z" fill="#0D0702"/>
<path d="M94.2574 13.5385H95.9406V15.2308H94.2574V13.5385Z" fill="#0D0702"/>
<path d="M106.04 13.5385H107.723V15.2308H106.04V13.5385Z" fill="#0D0702"/>
<path d="M94.2574 15.2308H95.9406V16.9231H94.2574V15.2308Z" fill="#0D0702"/>
<path d="M106.04 15.2308H107.723V16.9231H106.04V15.2308Z" fill="#0D0702"/>
<path d="M94.2574 16.9231H95.9406V18.6154H94.2574V16.9231Z" fill="#0D0702"/>
<path d="M106.04 16.9231H107.723V18.6154H106.04V16.9231Z" fill="#0D0702"/>
<path d="M94.2574 18.6154H95.9406V20.3077H94.2574V18.6154Z" fill="#0D0702"/>
<path d="M95.9406 18.6154H97.6238V20.3077H95.9406V18.6154Z" fill="#0D0702"/>
<path d="M102.673 18.6154H104.356V20.3077H102.673V18.6154Z" fill="#0D0702"/>
<path d="M104.356 18.6154H106.04V20.3077H104.356V18.6154Z" fill="#0D0702"/>
<path d="M95.9406 20.3077H97.6238V22H95.9406V20.3077Z" fill="#0D0702"/>
<path d="M97.6238 20.3077H99.3069V22H97.6238V20.3077Z" fill="#0D0702"/>
<path d="M99.3069 20.3077H100.99V22H99.3069V20.3077Z" fill="#0D0702"/>
<path d="M100.99 20.3077H102.673V22H100.99V20.3077Z" fill="#0D0702"/>
<path d="M102.673 20.3077H104.356V22H102.673V20.3077Z" fill="#0D0702"/>
<path d="M138.02 0H139.703V1.69231H138.02V0Z" fill="#0D0702"/>
<path d="M136.337 0H138.02V1.69231H136.337V0Z" fill="#0D0702"/>
<path d="M136.337 1.69231H138.02V3.38462H136.337V1.69231Z" fill="#0D0702"/>
<path d="M138.02 1.69231H139.703V3.38462H138.02V1.69231Z" fill="#0D0702"/>
<path d="M136.337 3.38462H138.02V5.07692H136.337V3.38462Z" fill="#0D0702"/>
<path d="M136.337 5.07692H138.02V6.76923H136.337V5.07692Z" fill="#0D0702"/>
<path d="M136.337 6.76923H138.02V8.46154H136.337V6.76923Z" fill="#0D0702"/>
<path d="M136.337 8.46154H138.02V10.1538H136.337V8.46154Z" fill="#0D0702"/>
<path d="M136.337 10.1538H138.02V11.8462H136.337V10.1538Z" fill="#0D0702"/>
<path d="M136.337 11.8462H138.02V13.5385H136.337V11.8462Z" fill="#0D0702"/>
<path d="M136.337 13.5385H138.02V15.2308H136.337V13.5385Z" fill="#0D0702"/>
<path d="M136.337 15.2308H138.02V16.9231H136.337V15.2308Z" fill="#0D0702"/>
<path d="M136.337 16.9231H138.02V18.6154H136.337V16.9231Z" fill="#0D0702"/>
<path d="M136.337 18.6154H138.02V20.3077H136.337V18.6154Z" fill="#0D0702"/>
<path d="M136.337 20.3077H138.02V22H136.337V20.3077Z" fill="#0D0702"/>
<path d="M138.02 20.3077H139.703V22H138.02V20.3077Z" fill="#0D0702"/>
<path d="M139.703 20.3077H141.386V22H139.703V20.3077Z" fill="#0D0702"/>
<path d="M134.653 20.3077H136.337V22H134.653V20.3077Z" fill="#0D0702"/>
<path d="M134.653 20.3077H136.337V22H134.653V20.3077Z" fill="#0D0702"/>
<path d="M134.653 0H136.337V1.69231H134.653V0Z" fill="#0D0702"/>
<path d="M138.02 3.38462H139.703V5.07692H138.02V3.38462Z" fill="#0D0702"/>
<path d="M138.02 5.07692H139.703V6.76923H138.02V5.07692Z" fill="#0D0702"/>
<path d="M138.02 6.76923H139.703V8.46154H138.02V6.76923Z" fill="#0D0702"/>
<path d="M138.02 8.46154H139.703V10.1538H138.02V8.46154Z" fill="#0D0702"/>
<path d="M138.02 10.1538H139.703V11.8462H138.02V10.1538Z" fill="#0D0702"/>
<path d="M139.703 10.1538H141.386V11.8462H139.703V10.1538Z" fill="#0D0702"/>
<path d="M139.703 11.8462H141.386V13.5385H139.703V11.8462Z" fill="#0D0702"/>
<path d="M141.386 13.5385H143.069V15.2308H141.386V13.5385Z" fill="#0D0702"/>
<path d="M143.069 13.5385H144.752V15.2308H143.069V13.5385Z" fill="#0D0702"/>
<path d="M150.644 1.69231H148.96V3.38462H150.644V1.69231Z" fill="#0D0702"/>
<path d="M144.752 13.5385H146.436V15.2308H144.752V13.5385Z" fill="#0D0702"/>
<path d="M148.96 1.69231H147.277V3.38462H148.96V1.69231Z" fill="#0D0702"/>
<path d="M145.594 15.2308H147.277V16.9231H145.594V15.2308Z" fill="#0D0702"/>
<path d="M148.119 3.38462H146.436V5.07692H148.119V3.38462Z" fill="#0D0702"/>
<path d="M145.594 16.9231H147.277V18.6154H145.594V16.9231Z" fill="#0D0702"/>
<path d="M147.277 18.6154H148.96V20.3077H147.277V18.6154Z" fill="#0D0702"/>
<path d="M146.436 6.76923H144.752V8.46154H146.436V6.76923Z" fill="#0D0702"/>
<path d="M148.96 20.3077H150.644V22H148.96V20.3077Z" fill="#0D0702"/>
<path d="M144.752 8.46154H143.069V10.1538H144.752V8.46154Z" fill="#0D0702"/>
<path d="M147.277 15.2308H148.96V16.9231H147.277V15.2308Z" fill="#0D0702"/>
<path d="M146.436 3.38462H144.752V5.07692H146.436V3.38462Z" fill="#0D0702"/>
<path d="M147.277 16.9231H148.96V18.6154H147.277V16.9231Z" fill="#0D0702"/>
<path d="M146.436 5.07692H144.752V6.76923H146.436V5.07692Z" fill="#0D0702"/>
<path d="M148.96 18.6154H150.644V20.3077H148.96V18.6154Z" fill="#0D0702"/>
<path d="M144.752 6.76923H143.069V8.46154H144.752V6.76923Z" fill="#0D0702"/>
<path d="M150.644 20.3077H152.327V22H150.644V20.3077Z" fill="#0D0702"/>
<path d="M143.069 8.46154H141.386V10.1538H143.069V8.46154Z" fill="#0D0702"/>
<path d="M143.911 15.2308H145.594V16.9231H143.911V15.2308Z" fill="#0D0702"/>
<path d="M141.386 10.1538H143.069V11.8462H141.386V10.1538Z" fill="#0D0702"/>
<path d="M141.386 11.8462H143.069V13.5385H141.386V11.8462Z" fill="#0D0702"/>
<path d="M152.327 0H150.644V1.69231H152.327V0Z" fill="#0D0702"/>
<path d="M143.069 11.8462H144.752V13.5385H143.069V11.8462Z" fill="#0D0702"/>
<path d="M150.644 0H148.96V1.69231H150.644V0Z" fill="#0D0702"/>
<path d="M138.02 11.8462H139.703V13.5385H138.02V11.8462Z" fill="#0D0702"/>
<path d="M138.02 13.5385H139.703V15.2308H138.02V13.5385Z" fill="#0D0702"/>
<path d="M138.02 15.2308H139.703V16.9231H138.02V15.2308Z" fill="#0D0702"/>
<path d="M138.02 16.9231H139.703V18.6154H138.02V16.9231Z" fill="#0D0702"/>
<path d="M138.02 18.6154H139.703V20.3077H138.02V18.6154Z" fill="#0D0702"/>
<path d="M158.218 0H159.901V1.69231H158.218V0Z" fill="#0D0702"/>
<path d="M168.317 22H166.634V20.3077H168.317V22Z" fill="#0D0702"/>
<path d="M159.901 0H161.584V1.69231H159.901V0Z" fill="#0D0702"/>
<path d="M166.634 22H164.95V20.3077H166.634V22Z" fill="#0D0702"/>
<path d="M161.584 0H163.267V1.69231H161.584V0Z" fill="#0D0702"/>
<path d="M164.95 22H163.267V20.3077H164.95V22Z" fill="#0D0702"/>
<path d="M163.267 0H164.95V1.69231H163.267V0Z" fill="#0D0702"/>
<path d="M163.267 22H161.584V20.3077H163.267V22Z" fill="#0D0702"/>
<path d="M164.95 0H166.634V1.69231H164.95V0Z" fill="#0D0702"/>
<path d="M161.584 22H159.901V20.3077H161.584V22Z" fill="#0D0702"/>
<path d="M166.634 0H168.317V1.69231H166.634V0Z" fill="#0D0702"/>
<path d="M159.901 22H158.218V20.3077H159.901V22Z" fill="#0D0702"/>
<path d="M168.317 0H170V1.69231H168.317V0Z" fill="#0D0702"/>
<path d="M158.218 22H156.535V20.3077H158.218V22Z" fill="#0D0702"/>
<path d="M168.317 1.69231H170V3.38462H168.317V1.69231Z" fill="#0D0702"/>
<path d="M158.218 20.3077H156.535V18.6154H158.218V20.3077Z" fill="#0D0702"/>
<path d="M168.317 3.38462H170V5.07692H168.317V3.38462Z" fill="#0D0702"/>
<path d="M158.218 18.6154H156.535V16.9231H158.218V18.6154Z" fill="#0D0702"/>
<path d="M166.634 1.69231H168.317V3.38462H166.634V1.69231Z" fill="#0D0702"/>
<path d="M159.901 20.3077H158.218V18.6154H159.901V20.3077Z" fill="#0D0702"/>
<path d="M156.535 1.69231H158.218V3.38462H156.535V1.69231Z" fill="#0D0702"/>
<path d="M170 20.3077H168.317V18.6154H170V20.3077Z" fill="#0D0702"/>
<path d="M158.218 1.69231H159.901V3.38462H158.218V1.69231Z" fill="#0D0702"/>
<path d="M168.317 20.3077H166.634V18.6154H168.317V20.3077Z" fill="#0D0702"/>
<path d="M156.535 3.38462H158.218V5.07692H156.535V3.38462Z" fill="#0D0702"/>
<path d="M154.851 3.38462H156.535V5.07692H154.851V3.38462Z" fill="#0D0702"/>
<path d="M156.535 5.07692H158.218V6.76923H156.535V5.07692Z" fill="#0D0702"/>
<path d="M158.218 5.07692H159.901V6.76923H158.218V5.07692Z" fill="#0D0702"/>
<path d="M154.851 5.07692H156.535V6.76923H154.851V5.07692Z" fill="#0D0702"/>
<path d="M158.218 6.76923H159.901V8.46154H158.218V6.76923Z" fill="#0D0702"/>
<path d="M159.901 6.76923H161.584V8.46154H159.901V6.76923Z" fill="#0D0702"/>
<path d="M156.535 6.76923H158.218V8.46154H156.535V6.76923Z" fill="#0D0702"/>
<path d="M158.218 8.46154H159.901V10.1538H158.218V8.46154Z" fill="#0D0702"/>
<path d="M159.901 8.46154H161.584V10.1538H159.901V8.46154Z" fill="#0D0702"/>
<path d="M159.901 10.1538H161.584V11.8462H159.901V10.1538Z" fill="#0D0702"/>
<path d="M161.584 8.46154H163.267V10.1538H161.584V8.46154Z" fill="#0D0702"/>
<path d="M161.584 10.1538H163.267V11.8462H161.584V10.1538Z" fill="#0D0702"/>
<path d="M161.584 11.8462H163.267V13.5385H161.584V11.8462Z" fill="#0D0702"/>
<path d="M163.267 10.1538H164.95V11.8462H163.267V10.1538Z" fill="#0D0702"/>
<path d="M164.95 10.1538H166.634V11.8462H164.95V10.1538Z" fill="#0D0702"/>
<path d="M164.95 11.8462H166.634V13.5385H164.95V11.8462Z" fill="#0D0702"/>
<path d="M166.634 13.5385H168.317V15.2308H166.634V13.5385Z" fill="#0D0702"/>
<path d="M166.634 15.2308H168.317V16.9231H166.634V15.2308Z" fill="#0D0702"/>
<path d="M166.634 11.8462H168.317V13.5385H166.634V11.8462Z" fill="#0D0702"/>
<path d="M168.317 13.5385H170V15.2308H168.317V13.5385Z" fill="#0D0702"/>
<path d="M168.317 15.2308H170V16.9231H168.317V15.2308Z" fill="#0D0702"/>
<path d="M168.317 16.9231H170V18.6154H168.317V16.9231Z" fill="#0D0702"/>
<path d="M163.267 11.8462H164.95V13.5385H163.267V11.8462Z" fill="#0D0702"/>
<path d="M115.297 0H116.98V1.69231H115.297V0Z" fill="#0D0702"/>
<path d="M115.297 1.69231H116.98V3.38462H115.297V1.69231Z" fill="#0D0702"/>
<path d="M116.98 1.69231H118.663V3.38462H116.98V1.69231Z" fill="#0D0702"/>
<path d="M115.297 3.38462H116.98V5.07692H115.297V3.38462Z" fill="#0D0702"/>
<path d="M116.98 3.38462H118.663V5.07692H116.98V3.38462Z" fill="#0D0702"/>
<path d="M116.98 5.07692H118.663V6.76923H116.98V5.07692Z" fill="#0D0702"/>
<path d="M118.663 6.76923H120.347V8.46154H118.663V6.76923Z" fill="#0D0702"/>
<path d="M118.663 8.46154H120.347V10.1538H118.663V8.46154Z" fill="#0D0702"/>
<path d="M118.663 5.07692H120.347V6.76923H118.663V5.07692Z" fill="#0D0702"/>
<path d="M120.347 6.76923H122.03V8.46154H120.347V6.76923Z" fill="#0D0702"/>
<path d="M120.347 8.46154H122.03V10.1538H120.347V8.46154Z" fill="#0D0702"/>
<path d="M122.03 8.46154H123.713V10.1538H122.03V8.46154Z" fill="#0D0702"/>
<path d="M120.347 10.1538H122.03V11.8462H120.347V10.1538Z" fill="#0D0702"/>
<path d="M122.03 10.1538H123.713V11.8462H122.03V10.1538Z" fill="#0D0702"/>
<path d="M122.03 11.8462H123.713V13.5385H122.03V11.8462Z" fill="#0D0702"/>
<path d="M123.713 10.1538H125.396V11.8462H123.713V10.1538Z" fill="#0D0702"/>
<path d="M123.713 11.8462H125.396V13.5385H123.713V11.8462Z" fill="#0D0702"/>
<path d="M123.713 13.5385H125.396V15.2308H123.713V13.5385Z" fill="#0D0702"/>
<path d="M125.396 13.5385H127.079V15.2308H125.396V13.5385Z" fill="#0D0702"/>
<path d="M125.396 15.2308H127.079V16.9231H125.396V15.2308Z" fill="#0D0702"/>
<path d="M123.713 15.2308H125.396V16.9231H123.713V15.2308Z" fill="#0D0702"/>
<path d="M127.079 16.9231H128.762V18.6154H127.079V16.9231Z" fill="#0D0702"/>
<path d="M127.079 18.6154H128.762V20.3077H127.079V18.6154Z" fill="#0D0702"/>
<path d="M125.396 16.9231H127.079V18.6154H125.396V16.9231Z" fill="#0D0702"/>
<path d="M127.079 20.3077H128.762V22H127.079V20.3077Z" fill="#0D0702"/>
<path d="M118.663 3.38462H120.347V5.07692H118.663V3.38462Z" fill="#0D0702"/>
<path d="M128.762 0H130.446V1.69231H128.762V0Z" fill="#0D0702"/>
<path d="M130.446 0H132.129V1.69231H130.446V0Z" fill="#0D0702"/>
<path d="M128.762 5.07692H130.446V8.46154H128.762V5.07692Z" fill="#0D0702"/>
<path d="M113.614 0H115.297V1.69231H113.614V0Z" fill="#0D0702"/>
<path d="M127.079 0H128.762V1.69231H127.079V0Z" fill="#0D0702"/>
<path d="M113.614 1.69231H115.297V3.38462H113.614V1.69231Z" fill="#0D0702"/>
<path d="M128.762 1.69231H130.446V3.38462H128.762V1.69231Z" fill="#0D0702"/>
<path d="M113.614 3.38462H115.297V5.07692H113.614V3.38462Z" fill="#0D0702"/>
<path d="M113.614 5.07692H115.297V6.76923H113.614V5.07692Z" fill="#0D0702"/>
<path d="M113.614 6.76923H115.297V8.46154H113.614V6.76923Z" fill="#0D0702"/>
<path d="M113.614 8.46154H115.297V10.1538H113.614V8.46154Z" fill="#0D0702"/>
<path d="M113.614 10.1538H115.297V11.8462H113.614V10.1538Z" fill="#0D0702"/>
<path d="M113.614 11.8462H115.297V13.5385H113.614V11.8462Z" fill="#0D0702"/>
<path d="M113.614 13.5385H115.297V15.2308H113.614V13.5385Z" fill="#0D0702"/>
<path d="M113.614 15.2308H115.297V16.9231H113.614V15.2308Z" fill="#0D0702"/>
<path d="M113.614 16.9231H115.297V18.6154H113.614V16.9231Z" fill="#0D0702"/>
<path d="M113.614 18.6154H115.297V20.3077H113.614V18.6154Z" fill="#0D0702"/>
<path d="M113.614 20.3077H115.297V22H113.614V20.3077Z" fill="#0D0702"/>
<path d="M111.931 20.3077H113.614V22H111.931V20.3077Z" fill="#0D0702"/>
<path d="M111.931 0H113.614V1.69231H111.931V0Z" fill="#0D0702"/>
<path d="M128.762 3.38462H130.446V5.07692H128.762V3.38462Z" fill="#0D0702"/>
<path d="M128.762 5.07692H130.446V6.76923H128.762V5.07692Z" fill="#0D0702"/>
<path d="M128.762 6.76923H130.446V8.46154H128.762V6.76923Z" fill="#0D0702"/>
<path d="M128.762 8.46154H130.446V10.1538H128.762V8.46154Z" fill="#0D0702"/>
<path d="M128.762 10.1538H130.446V11.8462H128.762V10.1538Z" fill="#0D0702"/>
<path d="M128.762 11.8462H130.446V13.5385H128.762V11.8462Z" fill="#0D0702"/>
<path d="M128.762 13.5385H130.446V15.2308H128.762V13.5385Z" fill="#0D0702"/>
<path d="M128.762 15.2308H130.446V16.9231H128.762V15.2308Z" fill="#0D0702"/>
<path d="M128.762 16.9231H130.446V18.6154H128.762V16.9231Z" fill="#0D0702"/>
<path d="M128.762 18.6154H130.446V20.3077H128.762V18.6154Z" fill="#0D0702"/>
<path d="M128.762 20.3077H130.446V22H128.762V20.3077Z" fill="#0D0702"/>
</svg>
