<svg width="170" height="42" viewBox="0 0 170 42" fill="none" xmlns="http://www.w3.org/2000/svg">
<path d="M22.6408 25.8462H25.8752V22.6154H22.6408V25.8462Z" fill="#170507"/>
<path d="M19.4064 25.8462H22.6408V22.6154H19.4064V25.8462Z" fill="#170507"/>
<path d="M16.172 25.8462H19.4064V22.6154H16.172V25.8462Z" fill="#170507"/>
<path d="M12.9376 25.8462H16.172V22.6154H12.9376V25.8462Z" fill="#170507"/>
<path d="M9.7032 25.8462H12.9376V22.6154H9.7032V25.8462Z" fill="#170507"/>
<path d="M6.4688 25.8462H9.7032V22.6154H6.4688V25.8462Z" fill="#170507"/>
<path d="M22.6408 29.0769H25.8752V25.8462H22.6408V29.0769Z" fill="#170507"/>
<path d="M22.6408 32.3077H25.8752V29.0769H22.6408V32.3077Z" fill="#170507"/>
<path d="M25.8752 32.3077H29.1096V29.0769H25.8752V32.3077Z" fill="#170507"/>
<path d="M19.4064 29.0769H22.6408V25.8462H19.4064V29.0769Z" fill="#170507"/>
<path d="M19.4064 32.3077H22.6408V29.0769H19.4064V32.3077Z" fill="#170507"/>
<path d="M16.172 29.0769H19.4064V25.8462H16.172V29.0769Z" fill="#170507"/>
<path d="M16.172 32.3077H19.4064V29.0769H16.172V32.3077Z" fill="#170507"/>
<path d="M12.9376 29.0769H16.172V25.8462H12.9376V29.0769Z" fill="#170507"/>
<path d="M12.9376 32.3077H16.172V29.0769H12.9376V32.3077Z" fill="#170507"/>
<path d="M9.7032 29.0769H12.9376V25.8462H9.7032V29.0769Z" fill="#170507"/>
<path d="M9.7032 32.3077H12.9376V29.0769H9.7032V32.3077Z" fill="#170507"/>
<path d="M6.4688 29.0769H9.7032V25.8462H6.4688V29.0769Z" fill="#170507"/>
<path d="M6.4688 32.3077H9.7032V29.0769H6.4688V32.3077Z" fill="#170507"/>
<path d="M3.2344 32.3077H6.4688V29.0769H3.2344V32.3077Z" fill="#170507"/>
<path d="M3.2344 35.5385H6.4688V32.3077H3.2344V35.5385Z" fill="#170507"/>
<path d="M6.4688 35.5385H9.7032V32.3077H6.4688V35.5385Z" fill="#170507"/>
<path d="M9.7032 35.5385H12.9376V32.3077H9.7032V35.5385Z" fill="#170507"/>
<path d="M12.9376 35.5385H16.172V32.3077H12.9376V35.5385Z" fill="#170507"/>
<path d="M16.172 35.5385H19.4064V32.3077H16.172V35.5385Z" fill="#170507"/>
<path d="M19.4064 35.5385H22.6408V32.3077H19.4064V35.5385Z" fill="#170507"/>
<path d="M22.6408 35.5385H25.8752V32.3077H22.6408V35.5385Z" fill="#170507"/>
<path d="M25.8752 35.5385H29.1096V32.3077H25.8752V35.5385Z" fill="#170507"/>
<path d="M3.2344 29.0769H6.4688V25.8462H3.2344V29.0769Z" fill="#170507"/>
<path d="M25.8752 29.0769H29.1096V25.8462H25.8752V29.0769Z" fill="#170507"/>
<path d="M0 32.3077H3.2344V29.0769H0V32.3077Z" fill="#170507"/>
<path d="M29.1096 32.3077H32.344V29.0769H29.1096V32.3077Z" fill="#170507"/>
<path d="M0 35.5385H3.2344V32.3077H0V35.5385Z" fill="#170507"/>
<path d="M29.1096 35.5385H32.344V32.3077H29.1096V35.5385Z" fill="#170507"/>
<path d="M3.2344 38.7692H6.4688V35.5385H3.2344V38.7692Z" fill="#170507"/>
<path d="M6.4688 38.7692H9.7032V35.5385H6.4688V38.7692Z" fill="#170507"/>
<path d="M9.7032 38.7692H12.9376V35.5385H9.7032V38.7692Z" fill="#170507"/>
<path d="M12.9376 38.7692H16.172V35.5385H12.9376V38.7692Z" fill="#170507"/>
<path d="M25.8752 38.7692H29.1096V35.5385H25.8752V38.7692Z" fill="#170507"/>
<path d="M22.6408 38.7692H25.8752V35.5385H22.6408V38.7692Z" fill="#170507"/>
<path d="M19.4064 38.7692H22.6408V35.5385H19.4064V38.7692Z" fill="#170507"/>
<path d="M16.172 38.7692H19.4064V35.5385H16.172V38.7692Z" fill="#170507"/>
<path d="M16.172 42H19.4064V38.7692H16.172V42Z" fill="#170507"/>
<path d="M19.4064 42H22.6408V38.7692H19.4064V42Z" fill="#170507"/>
<path d="M22.6408 42H25.8752V38.7692H22.6408V42Z" fill="#170507"/>
<path d="M12.9376 42H16.172V38.7692H12.9376V42Z" fill="#170507"/>
<path d="M9.7032 42H12.9376V38.7692H9.7032V42Z" fill="#170507"/>
<path d="M6.4688 42H9.7032V38.7692H6.4688V42Z" fill="#170507"/>
<path d="M3.2344 22.6154H6.4688V19.3846H3.2344V22.6154Z" fill="#170507"/>
<path d="M25.8752 22.6154H29.1096V19.3846H25.8752V22.6154Z" fill="#170507"/>
<path d="M22.6408 22.6154H25.8752V19.3846H22.6408V22.6154Z" fill="#170507"/>
<path d="M19.4064 22.6154H22.6408V19.3846H19.4064V22.6154Z" fill="#170507"/>
<path d="M16.172 22.6154H19.4064V19.3846H16.172V22.6154Z" fill="#170507"/>
<path d="M12.9376 22.6154H16.172V19.3846H12.9376V22.6154Z" fill="#170507"/>
<path d="M9.7032 22.6154H12.9376V19.3846H9.7032V22.6154Z" fill="#170507"/>
<path d="M6.4688 22.6154H9.7032V19.3846H6.4688V22.6154Z" fill="#170507"/>
<path d="M3.2344 12.9231H6.4688V9.69231H3.2344V12.9231Z" fill="#170507"/>
<path d="M3.2344 16.1538H6.4688V12.9231H3.2344V16.1538Z" fill="#170507"/>
<path d="M3.2344 19.3846H6.4688V16.1538H3.2344V19.3846Z" fill="#170507"/>
<path d="M6.4688 12.9231H9.7032V9.69231H6.4688V12.9231Z" fill="white"/>
<path d="M9.7032 12.9231H12.9376V9.69231H9.7032V12.9231Z" fill="white"/>
<path d="M12.9376 12.9231H16.172V9.69231H12.9376V12.9231Z" fill="white"/>
<path d="M16.172 12.9231H19.4064V9.69231H16.172V12.9231Z" fill="white"/>
<path d="M19.4064 12.9231H22.6408V9.69231H19.4064V12.9231Z" fill="white"/>
<path d="M22.6408 12.9231H25.8752V9.69231H22.6408V12.9231Z" fill="white"/>
<path d="M22.6408 16.1538H25.8752V12.9231H22.6408V16.1538Z" fill="white"/>
<path d="M19.4064 16.1538H22.6408V12.9231H19.4064V16.1538Z" fill="#170507"/>
<path d="M16.172 16.1538H19.4064V12.9231H16.172V16.1538Z" fill="white"/>
<path d="M12.9376 16.1538H16.172V12.9231H12.9376V16.1538Z" fill="white"/>
<path d="M9.7032 16.1538H12.9376V12.9231H9.7032V16.1538Z" fill="#170507"/>
<path d="M6.4688 16.1538H9.7032V12.9231H6.4688V16.1538Z" fill="white"/>
<path d="M6.4688 19.3846H9.7032V16.1538H6.4688V19.3846Z" fill="white"/>
<path d="M9.7032 19.3846H12.9376V16.1538H9.7032V19.3846Z" fill="white"/>
<path d="M12.9376 19.3846H16.172V16.1538H12.9376V19.3846Z" fill="white"/>
<path d="M16.172 19.3846H19.4064V16.1538H16.172V19.3846Z" fill="white"/>
<path d="M19.4064 19.3846H22.6408V16.1538H19.4064V19.3846Z" fill="white"/>
<path d="M22.6408 19.3846H25.8752V16.1538H22.6408V19.3846Z" fill="white"/>
<path d="M3.2344 9.69231H6.4688V6.46154H3.2344V9.69231Z" fill="#170507"/>
<path d="M6.4688 9.69231H9.7032V6.46154H6.4688V9.69231Z" fill="#170507"/>
<path d="M9.7032 9.69231H12.9376V6.46154H9.7032V9.69231Z" fill="#170507"/>
<path d="M12.9376 9.69231H16.172V6.46154H12.9376V9.69231Z" fill="#170507"/>
<path d="M16.172 9.69231H19.4064V6.46154H16.172V9.69231Z" fill="#170507"/>
<path d="M19.4064 9.69231H22.6408V6.46154H19.4064V9.69231Z" fill="#170507"/>
<path d="M22.6408 9.69231H25.8752V6.46154H22.6408V9.69231Z" fill="#170507"/>
<path d="M6.4688 6.46154H9.7032V3.23077H6.4688V6.46154Z" fill="#170507"/>
<path d="M9.7032 6.46154H12.9376V3.23077H9.7032V6.46154Z" fill="#170507"/>
<path d="M12.9376 6.46154H16.172V3.23077H12.9376V6.46154Z" fill="#170507"/>
<path d="M16.172 6.46154H19.4064V3.23077H16.172V6.46154Z" fill="#170507"/>
<path d="M19.4064 6.46154H22.6408V3.23077H19.4064V6.46154Z" fill="#170507"/>
<path d="M9.7032 3.23077H12.9376V0H9.7032V3.23077Z" fill="#170507"/>
<path d="M12.9376 3.23077H16.172V0H12.9376V3.23077Z" fill="#170507"/>
<path d="M16.172 3.23077H19.4064V0H16.172V3.23077Z" fill="#170507"/>
<path d="M25.8752 9.69231H29.1096V6.46154H25.8752V9.69231Z" fill="#170507"/>
<path d="M25.8752 12.9231H29.1096V9.69231H25.8752V12.9231Z" fill="#170507"/>
<path d="M25.8752 16.1538H29.1096V12.9231H25.8752V16.1538Z" fill="#170507"/>
<path d="M25.8752 19.3846H29.1096V16.1538H25.8752V19.3846Z" fill="#170507"/>
<path d="M29.1096 9.69231H32.344V6.46154H29.1096V9.69231Z" fill="#170507"/>
<path d="M25.8752 6.46154H29.1096V3.23077H25.8752V6.46154Z" fill="#170507"/>
<path d="M25.8752 3.23077H29.1096V0H25.8752V3.23077Z" fill="#170507"/>
<path d="M22.6408 6.46154H25.8752V3.23077H22.6408V6.46154Z" fill="#170507"/>
<path d="M19.4064 3.23077H22.6408V0H19.4064V3.23077Z" fill="#170507"/>
<path d="M29.1096 19.3846H32.344V16.1538H29.1096V19.3846Z" fill="#170507"/>
<path d="M29.1096 16.1538H32.344V12.9231H29.1096V16.1538Z" fill="#170507"/>
<path d="M0 19.3846H3.2344V16.1538H0V19.3846Z" fill="#170507"/>
<path d="M0 16.1538H3.2344V12.9231H0V16.1538Z" fill="#170507"/>
<path d="M42.0472 29.0769V12.9231H45.2816V16.1538H48.516V19.3846H45.2816V29.0769H42.0472ZM51.7504 29.0769V22.6154H48.516V19.3846H51.7504V12.9231H54.9848V29.0769H51.7504Z" fill="#0D0702"/>
<path d="M57.7017 29.0769V25.8462H60.9361V16.1538H57.7017V12.9231H67.4049V16.1538H64.1705V25.8462H67.4049V29.0769H57.7017Z" fill="#0D0702"/>
<path d="M70.1218 29.0769V12.9231H73.3562V16.1538H76.5906V19.3846H73.3562V29.0769H70.1218ZM79.825 29.0769V22.6154H76.5906V19.3846H79.825V12.9231H83.0594V29.0769H79.825Z" fill="#0D0702"/>
<path d="M85.7763 29.0769V25.8462H92.2451V29.0769H85.7763ZM92.2451 25.8462V16.1538H85.7763V12.9231H95.4795V25.8462H92.2451Z" fill="#0D0702"/>
<path d="M104.665 19.3846V16.1538H101.431V19.3846H104.665ZM98.1964 29.0769V12.9231H107.9V29.0769H104.665V22.6154H101.431V29.0769H98.1964Z" fill="#0D0702"/>
<path d="M110.616 29.0769V12.9231H113.851V25.8462H120.32V29.0769H110.616Z" fill="#0D0702"/>
<path d="M123.037 29.0769V12.9231H132.74V16.1538H126.271V19.3846H129.505V22.6154H126.271V25.8462H132.74V29.0769H123.037Z" fill="#0D0702"/>
<path d="M141.925 29.0769V22.6154H145.16V29.0769H141.925ZM135.457 29.0769V12.9231H145.16V19.3846H141.925V16.1538H138.691V19.3846H141.925V22.6154H138.691V29.0769H135.457Z" fill="#0D0702"/>
<path d="M151.111 29.0769V16.1538H147.877V12.9231H157.58V16.1538H154.346V29.0769H151.111Z" fill="#0D0702"/>
<path d="M160.297 29.0769V25.8462H166.766V22.6154H170V29.0769H160.297ZM163.531 22.6154V19.3846H166.766V22.6154H163.531ZM160.297 19.3846V12.9231H170V16.1538H163.531V19.3846H160.297Z" fill="#0D0702"/>
</svg>
