<svg width="24" height="24" viewBox="0 0 24 24" fill="none" xmlns="http://www.w3.org/2000/svg">
<rect x="10.2857" y="6.85712" width="3.42857" height="3.42857" fill="#FFE762"/>
<rect x="10.2857" y="10.2857" width="3.42857" height="3.42857" fill="#FFE762"/>
<rect x="13.7143" y="10.2857" width="3.42857" height="3.42857" fill="#FFE762"/>
<rect x="10.2857" y="13.7143" width="3.42857" height="3.42857" fill="#FFE762"/>
<rect x="6.85715" y="10.2857" width="3.42857" height="3.42857" fill="#FFE762"/>
<rect x="6.85715" y="6.85712" width="3.42857" height="3.42857" fill="black"/>
<rect x="3.42856" y="10.2857" width="3.42857" height="3.42857" fill="black"/>
<rect x="3.42856" y="6.85712" width="3.42857" height="3.42857" fill="white"/>
<rect x="6.85715" y="3.42859" width="3.42857" height="3.42857" fill="white"/>
<rect x="10.2857" width="3.42857" height="3.42857" fill="white"/>
<rect x="13.7143" y="3.42859" width="3.42857" height="3.42857" fill="white"/>
<rect x="17.1429" y="6.85712" width="3.42857" height="3.42857" fill="white"/>
<rect x="20.5714" y="10.2857" width="3.42857" height="3.42857" fill="white"/>
<rect x="17.1429" y="13.7143" width="3.42857" height="3.42857" fill="white"/>
<rect x="13.7143" y="17.1429" width="3.42857" height="3.42857" fill="white"/>
<rect x="10.2857" y="20.5714" width="3.42857" height="3.42857" fill="white"/>
<rect x="6.85715" y="17.1429" width="3.42857" height="3.42857" fill="white"/>
<rect x="3.42856" y="13.7143" width="3.42857" height="3.42857" fill="white"/>
<rect y="10.2857" width="3.42857" height="3.42857" fill="white"/>
<rect x="6.85715" y="13.7143" width="3.42857" height="3.42857" fill="black"/>
<rect x="10.2857" y="17.1429" width="3.42857" height="3.42857" fill="black"/>
<rect x="13.7143" y="13.7143" width="3.42857" height="3.42857" fill="black"/>
<rect x="17.1429" y="10.2857" width="3.42857" height="3.42857" fill="black"/>
<rect x="13.7143" y="6.85712" width="3.42857" height="3.42857" fill="black"/>
<rect x="10.2857" y="3.42859" width="3.42857" height="3.42857" fill="black"/>
</svg>
