<svg width="32" height="32" viewBox="0 0 32 32" fill="none" xmlns="http://www.w3.org/2000/svg">
<rect x="30.2222" y="1.77771" width="1.77778" height="1.77778" fill="black"/>
<rect x="28.4445" y="3.55548" width="1.77778" height="1.77778" fill="black"/>
<rect x="26.6666" y="5.33328" width="1.77778" height="1.77778" fill="black"/>
<rect x="24.8889" y="7.11105" width="1.77778" height="1.77778" fill="black"/>
<rect x="23.1111" y="8.88882" width="1.77778" height="1.77778" fill="black"/>
<rect x="21.3334" y="10.6666" width="1.77778" height="1.77778" fill="black"/>
<rect x="19.5555" y="12.4444" width="1.77778" height="1.77778" fill="black"/>
<rect x="17.7778" y="14.2222" width="1.77778" height="1.77778" fill="black"/>
<rect x="17.7778" y="15.9999" width="1.77778" height="1.77778" fill="black"/>
<rect x="19.5555" y="17.7777" width="1.77778" height="1.77778" fill="black"/>
<rect x="21.3334" y="19.5555" width="1.77778" height="1.77778" fill="black"/>
<rect x="23.1111" y="21.3333" width="1.77778" height="1.77778" fill="black"/>
<rect x="24.8889" y="23.1111" width="1.77778" height="1.77778" fill="black"/>
<rect x="26.6666" y="24.8888" width="1.77778" height="1.77778" fill="black"/>
<rect x="28.4445" y="26.6666" width="1.77778" height="1.77778" fill="black"/>
<rect x="28.4445" y="28.4444" width="1.77778" height="1.77778" fill="black"/>
<rect x="26.6666" y="28.4444" width="1.77778" height="1.77778" fill="black"/>
<rect x="19.5555" y="15.9999" width="1.77778" height="1.77778" fill="black"/>
<rect x="21.3334" y="17.7777" width="1.77778" height="1.77778" fill="black"/>
<rect x="23.1111" y="19.5555" width="1.77778" height="1.77778" fill="black"/>
<rect x="24.8889" y="21.3333" width="1.77778" height="1.77778" fill="black"/>
<rect x="26.6666" y="23.1111" width="1.77778" height="1.77778" fill="black"/>
<rect x="28.4445" y="24.8888" width="1.77778" height="1.77778" fill="black"/>
<rect x="14.2222" y="17.7777" width="1.77778" height="1.77778" fill="black"/>
<rect x="14.2222" y="19.5555" width="1.77778" height="1.77778" fill="black"/>
<rect x="16" y="21.3333" width="1.77778" height="1.77778" fill="black"/>
<rect x="17.7778" y="23.1111" width="1.77778" height="1.77778" fill="black"/>
<rect x="19.5555" y="24.8888" width="1.77778" height="1.77778" fill="black"/>
<rect x="21.3334" y="26.6666" width="1.77778" height="1.77778" fill="black"/>
<rect x="23.1111" y="28.4444" width="1.77778" height="1.77778" fill="black"/>
<rect x="16" y="19.5555" width="1.77778" height="1.77778" fill="black"/>
<rect x="17.7778" y="21.3333" width="1.77778" height="1.77778" fill="black"/>
<rect x="19.5555" y="23.1111" width="1.77778" height="1.77778" fill="black"/>
<rect x="21.3334" y="24.8888" width="1.77778" height="1.77778" fill="black"/>
<rect x="23.1111" y="26.6666" width="1.77778" height="1.77778" fill="black"/>
<rect x="24.8889" y="28.4444" width="1.77778" height="1.77778" fill="black"/>
<rect x="12.4445" y="19.5555" width="1.77778" height="1.77778" fill="black"/>
<rect x="10.6666" y="21.3333" width="1.77778" height="1.77778" fill="black"/>
<rect x="8.88892" y="23.1111" width="1.77778" height="1.77778" fill="black"/>
<rect x="7.11108" y="24.8888" width="1.77778" height="1.77778" fill="black"/>
<rect x="5.33337" y="26.6666" width="1.77778" height="1.77778" fill="black"/>
<rect x="3.55554" y="28.4444" width="1.77778" height="1.77778" fill="black"/>
<rect x="28.4445" y="1.77771" width="1.77778" height="1.77778" fill="black"/>
<rect x="26.6666" y="3.55548" width="1.77778" height="1.77778" fill="black"/>
<rect x="24.8889" y="5.33328" width="1.77778" height="1.77778" fill="black"/>
<rect x="23.1111" y="7.11105" width="1.77778" height="1.77778" fill="black"/>
<rect x="21.3334" y="8.88882" width="1.77778" height="1.77778" fill="black"/>
<rect x="19.5555" y="10.6666" width="1.77778" height="1.77778" fill="black"/>
<rect x="17.7778" y="12.4444" width="1.77778" height="1.77778" fill="black"/>
<rect x="12.4445" y="17.7777" width="1.77778" height="1.77778" fill="black"/>
<rect x="10.6666" y="19.5555" width="1.77778" height="1.77778" fill="black"/>
<rect x="8.88892" y="21.3333" width="1.77778" height="1.77778" fill="black"/>
<rect x="7.11108" y="23.1111" width="1.77778" height="1.77778" fill="black"/>
<rect x="5.33337" y="24.8888" width="1.77778" height="1.77778" fill="black"/>
<rect x="3.55554" y="26.6666" width="1.77778" height="1.77778" fill="black"/>
<rect x="1.77783" y="28.4444" width="1.77778" height="1.77778" fill="black"/>
<rect x="26.6666" y="1.77771" width="1.77778" height="1.77778" fill="black"/>
<rect x="24.8889" y="3.55548" width="1.77778" height="1.77778" fill="black"/>
<rect x="23.1111" y="5.33328" width="1.77778" height="1.77778" fill="black"/>
<rect x="21.3334" y="7.11105" width="1.77778" height="1.77778" fill="black"/>
<rect x="19.5555" y="8.88882" width="1.77778" height="1.77778" fill="black"/>
<rect x="17.7778" y="10.6666" width="1.77778" height="1.77778" fill="black"/>
<rect x="16" y="12.4444" width="1.77778" height="1.77778" fill="black"/>
<rect x="16" y="10.6666" width="1.77778" height="1.77778" fill="black"/>
<rect x="14.2222" y="8.88882" width="1.77778" height="1.77778" fill="black"/>
<rect x="12.4445" y="7.11105" width="1.77778" height="1.77778" fill="black"/>
<rect x="10.6666" y="5.33328" width="1.77778" height="1.77778" fill="black"/>
<rect x="8.88892" y="3.55548" width="1.77778" height="1.77778" fill="black"/>
<rect x="7.11108" y="1.77771" width="1.77778" height="1.77778" fill="black"/>
<rect x="14.2222" y="10.6666" width="1.77778" height="1.77778" fill="black"/>
<rect x="12.4445" y="8.88882" width="1.77778" height="1.77778" fill="black"/>
<rect x="10.6666" y="7.11105" width="1.77778" height="1.77778" fill="black"/>
<rect x="8.88892" y="5.33328" width="1.77778" height="1.77778" fill="black"/>
<rect x="7.11108" y="3.55548" width="1.77778" height="1.77778" fill="black"/>
<rect x="5.33337" y="1.77771" width="1.77778" height="1.77778" fill="black"/>
<rect x="12.4445" y="15.9999" width="1.77778" height="1.77778" fill="black"/>
<rect x="12.4445" y="14.2222" width="1.77778" height="1.77778" fill="black"/>
<rect x="10.6666" y="12.4444" width="1.77778" height="1.77778" fill="black"/>
<rect x="8.88892" y="10.6666" width="1.77778" height="1.77778" fill="black"/>
<rect x="7.11108" y="8.88882" width="1.77778" height="1.77778" fill="black"/>
<rect x="5.33337" y="7.11105" width="1.77778" height="1.77778" fill="black"/>
<rect x="3.55554" y="5.33328" width="1.77778" height="1.77778" fill="black"/>
<rect x="1.77783" y="3.55548" width="1.77778" height="1.77778" fill="black"/>
<rect x="1.77783" y="1.77771" width="1.77778" height="1.77778" fill="black"/>
<rect x="3.55554" y="1.77771" width="1.77778" height="1.77778" fill="black"/>
<rect x="10.6666" y="14.2222" width="1.77778" height="1.77778" fill="black"/>
<rect x="8.88892" y="12.4444" width="1.77778" height="1.77778" fill="black"/>
<rect x="7.11108" y="10.6666" width="1.77778" height="1.77778" fill="black"/>
<rect x="5.33337" y="8.88882" width="1.77778" height="1.77778" fill="black"/>
<rect x="3.55554" y="7.11105" width="1.77778" height="1.77778" fill="black"/>
<rect x="1.77783" y="5.33328" width="1.77778" height="1.77778" fill="black"/>
<rect x="10.6666" y="17.7777" width="1.77778" height="1.77778" fill="black"/>
<rect x="8.88892" y="19.5555" width="1.77778" height="1.77778" fill="black"/>
<rect x="7.11108" y="21.3333" width="1.77778" height="1.77778" fill="black"/>
<rect x="5.33337" y="23.1111" width="1.77778" height="1.77778" fill="black"/>
<rect x="3.55554" y="24.8888" width="1.77778" height="1.77778" fill="black"/>
<rect x="1.77783" y="26.6666" width="1.77778" height="1.77778" fill="black"/>
<rect y="28.4444" width="1.77778" height="1.77778" fill="black"/>
</svg>
