<svg width="15" height="15" viewBox="0 0 15 15" fill="none" xmlns="http://www.w3.org/2000/svg">
<rect y="3" width="3" height="3" fill="#0D0702"/>
<rect x="3" width="3" height="3" fill="#0D0702"/>
<rect x="6" width="3" height="3" fill="#0D0702"/>
<rect x="9" width="3" height="3" fill="#0D0702"/>
<rect y="9" width="3" height="3" fill="#0D0702"/>
<rect y="6" width="3" height="3" fill="#0D0702"/>
<rect x="12" y="6" width="3" height="3" fill="#0D0702"/>
<rect x="4.5" y="4.5" width="2" height="2" fill="#0D0702"/>
<rect x="4.5" y="6.5" width="2" height="2" fill="#0D0702"/>
<rect x="4.5" y="8.5" width="2" height="2" fill="#0D0702"/>
<rect x="6.5" y="8.5" width="2" height="2" fill="#0D0702"/>
<rect x="8.5" y="8.5" width="2" height="2" fill="#0D0702"/>
<rect x="6.5" y="4.5" width="2" height="2" fill="#0D0702"/>
<rect x="8.5" y="4.5" width="2" height="2" fill="#0D0702"/>
<rect x="12" y="9" width="3" height="3" fill="#0D0702"/>
<rect x="12" y="3" width="3" height="3" fill="#0D0702"/>
<rect x="3" y="12" width="3" height="3" fill="#0D0702"/>
<rect x="6" y="12" width="3" height="3" fill="#0D0702"/>
<rect x="9" y="12" width="3" height="3" fill="#0D0702"/>
</svg>
